<svg xmlns="http://www.w3.org/2000/svg" viewBox="0 0 91.5 117.12"><defs>
<style>.cls-1{fill:#fff;}</style>
</defs><g id="Capa_2" data-name="Capa 2">
<path d="M45.82,1.6c29.6,0,50.46,27.73,42.79,56.92-3.48,13.25-10.73,24.42-19.36,34.8a153.88,153.88,0,0,1-21.83,21.4c-.92.75-1.63,1.23-2.84.24C29.35,102.43,16,88.31,7.34,70.34,1.79,58.82-.56,46.81,3,34.15A44.39,44.39,0,0,1,45.82,1.6Zm-.08,108.33a4.4,4.4,0,0,0,.73-.41c11.65-9.94,22-21,29.93-34.24,5.26-8.79,9-18.1,9.23-28.55A39.83,39.83,0,0,0,38.18,6.91C15.37,11.41,1.48,33.76,7.28,56.7,10.41,69,17.13,79.43,25.06,89.14A152.74,152.74,0,0,0,45.74,109.93Z"/>
<path class="cls-1" d="M45.69,113.51a162.25,162.25,0,0,1-21.91-22C15.39,81.21,8.27,70.2,5,57.14c-6.15-24.29,8.56-48,32.72-52.73A42.2,42.2,0,0,1,87.93,46.58c-.2,11.07-4.22,20.93-9.78,30.23-8.36,14-19.35,25.73-31.7,36.27A5.68,5.68,0,0,1,45.69,113.51Zm.18-87.78A19.85,19.85,0,1,0,65.59,45.82,19.72,19.72,0,0,0,45.87,25.73Z"/>
<path d="M45.87,25.73a19.85,19.85,0,1,1-20,19.58A19.73,19.73,0,0,1,45.87,25.73ZM45.8,63.42A17.87,17.87,0,1,0,27.86,45.7,18,18,0,0,0,45.8,63.42Z"/></g></svg>