<?xml version="1.0" encoding="UTF-8"?>
<svg id="Capa_1" data-name="Capa 1" xmlns="http://www.w3.org/2000/svg" viewBox="0 0 214.35 219.35">
  <defs>
    <style>
      .cls-1 {
        fill: #8EA2A5;
        stroke-width: 0px;
      }
    </style>
  </defs>
  <path class="cls-1" d="m177.77,6.56H36.58C18.62,6.56,4.06,21.12,4.06,39.08v141.2c0,17.96,14.56,32.52,32.52,32.52h141.2c17.96,0,32.52-14.56,32.52-32.52V39.08c0-17.96-14.56-32.52-32.52-32.52Zm-24.05,118.54c-11.73-11.87-24.43-24.72-36.92-37.36h27.77c-1.67-25.09-20.38-44.8-44.54-47.56-27.23-3.11-49.37,11.07-57.25,36.65-5.04,16.37-1.59,31.38,6.71,45.91,11.22,19.64,26.84,35.39,44.59,52.13,4.35-5.03,8.64-9.67,12.48-14.66.9-1.17.7-3.61.29-5.3-2.22-9.1.68-18.3,8.19-23.51,7.43-5.16,15.39-5.88,23.47-1.31,7.71,4.36,12.06,12.88,10.99,21.34-1.48,11.82-11.64,20.01-24.01,18.99-2.98-.25-4.79.5-6.9,2.58-8.17,8.07-16.62,15.84-25.54,24.27-7.36-6.73-14.65-12.96-21.45-19.69-17.45-17.28-33.75-35.49-43.39-58.57-12.21-29.23-3.05-63.12,22.32-82.94,23.68-18.5,59.93-18.82,84.34-.26,15.23,11.57,24.34,27.06,26.9,46.19.24,1.78.56,3.54.9,5.64h28.81c-12.71,12.6-25.4,25.18-37.78,37.45Z"/>
</svg>