<svg xmlns="http://www.w3.org/2000/svg" viewBox="0 0 250 250"><defs><style>.cls-1{fill:#8f3fa3;}.cls-2{fill:#fff;}</style></defs><g id="Capa_2" data-name="Capa 2"><circle class="cls-1" cx="125" cy="125" r="120.5"/><path class="cls-2" d="M189.91,200.51H60.09c-.32-.1-.63-.22-1-.3a12.28,12.28,0,0,1-8.77-7.54c-.37-.9-.6-1.85-.89-2.78V75.44a5,5,0,0,0,.26-.68A12.23,12.23,0,0,1,60.21,65a37.42,37.42,0,0,1,5.2,0c0-2.3,0-4.31,0-6.31a9.42,9.42,0,0,1,18.83.17c0,2,0,4,0,5.92h31.33c0-1.88,0-3.65,0-5.42,0-5.58,4.12-9.8,9.44-9.8s9.39,4.19,9.42,9.8c0,1.8,0,3.6,0,5.43h31.29c0-2-.05-4,0-6a9.42,9.42,0,0,1,18.83-.1c0,2,0,4.09,0,6.26a38.86,38.86,0,0,1,5.09,0,12.28,12.28,0,0,1,10.84,12.63q0,31.56,0,63.11,0,23.52,0,47a12.35,12.35,0,0,1-8.11,12C191.59,200,190.74,200.25,189.91,200.51ZM55.39,100.22h55c.44,0,.89,0,1.33,0a2.94,2.94,0,1,1-.06,5.88c-.45,0-.89,0-1.33,0h-55v69.43c0,4.69,2.6,7.26,7.33,7.26H187.34c4.7,0,7.29-2.59,7.29-7.3V106.12H139.48a12.15,12.15,0,0,1-1.48,0,2.94,2.94,0,0,1,0-5.85,14.38,14.38,0,0,1,1.47,0h54.92c.11-.22.18-.31.18-.39,0-7.67.06-15.34,0-23a6.27,6.27,0,0,0-5.51-6,37,37,0,0,0-4.48,0c0,1.57.1,3,0,4.5a13.94,13.94,0,0,1-.78,3.86,9.29,9.29,0,0,1-10.15,5.61,9.44,9.44,0,0,1-7.89-9c-.06-1.65,0-3.3,0-4.94H134.45c0,1.48.06,2.9,0,4.31a13.28,13.28,0,0,1-.5,3.33,9.38,9.38,0,0,1-10.12,6.37,9.48,9.48,0,0,1-8.2-9.2c-.06-1.6,0-3.2,0-4.78H84.26c0,1.62,0,3.14,0,4.66a9.43,9.43,0,1,1-18.86-.11c0-1.51,0-3,0-4.61a42.62,42.62,0,0,0-4.39,0,6.25,6.25,0,0,0-5.59,5.93C55.32,84.48,55.39,92.24,55.39,100.22Zm0,86.69c-.28,4.82,2.45,7.7,7.06,7.7H188.32a6.48,6.48,0,0,0,6.15-7.68c-3,2-6.37,1.79-9.72,1.79q-60.25,0-120.51,0C61.22,188.73,58.25,188.64,55.44,186.91ZM78.36,67.27c0-2.61,0-5.21,0-7.82,0-2.44-1.43-4.05-3.52-4.06s-3.53,1.6-3.54,4q0,7.74,0,15.48c0,2.45,1.41,4,3.51,4.06s3.53-1.6,3.55-4S78.36,69.82,78.36,67.27Zm100.34-.12c0-2.6,0-5.21,0-7.81,0-2.35-1.42-3.92-3.47-4a3.58,3.58,0,0,0-3.58,3.86c0,5.31,0,10.62,0,15.92a3.57,3.57,0,0,0,3.49,3.8c2.05,0,3.54-1.55,3.56-3.85C178.71,72.46,178.7,69.81,178.7,67.15Zm-50.15,0c0-2.65,0-5.31,0-8a3.53,3.53,0,1,0-7,0q0,8,0,15.93a3.53,3.53,0,1,0,7,0C128.57,72.5,128.55,69.84,128.55,67.19Z"/><path class="cls-2" d="M111.85,170.72a7,7,0,0,1-6.78-8.11c.56-3.44,1.2-6.86,1.72-10.31a2.22,2.22,0,0,0-.52-1.62q-3.4-3.48-6.94-6.82c-2.19-2.07-3.17-4.5-2.2-7.43s3.14-4.35,6.15-4.72q4.75-.59,9.47-1.43a2.52,2.52,0,0,0,1.6-1.16c1.51-2.86,2.93-5.77,4.33-8.69,1.29-2.68,3.32-4.25,6.33-4.26s5,1.58,6.34,4.26c1.4,2.91,2.81,5.83,4.33,8.69a2.52,2.52,0,0,0,1.59,1.15c3.34.58,6.7,1,10,1.52a6.54,6.54,0,0,1,5.53,4.49,6.42,6.42,0,0,1-1.64,7.05c-2.41,2.45-4.9,4.83-7.38,7.21a1.82,1.82,0,0,0-.62,1.91c.63,3.28,1.13,6.58,1.7,9.87a6.8,6.8,0,0,1-9.89,7.35c-3-1.55-6-3.2-9-4.69a2.52,2.52,0,0,0-2,0c-2.87,1.41-5.65,3-8.5,4.39A32.91,32.91,0,0,1,111.85,170.72Zm-1-7.11c-.06.91.57,1.25,1.76.63,3.44-1.78,6.9-3.54,10.3-5.41a4,4,0,0,1,4.16,0c3.37,1.83,6.76,3.59,10.17,5.34a1.81,1.81,0,0,0,1.46.17c.29-.21.34-1,.27-1.43-.62-3.83-1.24-7.66-2-11.47a3.82,3.82,0,0,1,1.3-3.81c2.78-2.64,5.51-5.33,8.23-8,.34-.34.74-1,.64-1.31s-.8-.64-1.28-.71c-3.68-.59-7.37-1.19-11.08-1.62a4.34,4.34,0,0,1-3.81-2.73c-1.56-3.39-3.26-6.71-4.94-10a5.47,5.47,0,0,0-1-1.12c-.4.38-.93.69-1.16,1.15-1.72,3.37-3.43,6.75-5,10.17a4.2,4.2,0,0,1-3.62,2.56c-3.61.44-7.21,1-10.8,1.55a7,7,0,0,0-1.74.81,7.39,7.39,0,0,0,1,1.52c2.68,2.67,5.4,5.31,8.12,7.94a3.64,3.64,0,0,1,1.18,3.57C112.24,155.35,111.6,159.37,110.89,163.61Z"/><path class="cls-2" d="M125.11,100.23a2.94,2.94,0,1,1-3,2.75A3,3,0,0,1,125.11,100.23Z"/></g></svg>