<?xml version="1.0" encoding="UTF-8"?>
<svg xmlns="http://www.w3.org/2000/svg" xmlns:xlink="http://www.w3.org/1999/xlink" width="192px" height="192px" viewBox="0 0 192 192" version="1.1">
<defs>
<linearGradient id="linear0" gradientUnits="userSpaceOnUse" x1="32.05" y1="116.3" x2="114.46" y2="33.9" gradientTransform="matrix(1.28,0,0,1.28,0,0)">
<stop offset="0.05" style="stop-color:rgb(59.607843%,30.196078%,59.215686%);stop-opacity:1;"/>
<stop offset="0.51" style="stop-color:rgb(24.705882%,65.490196%,80%);stop-opacity:1;"/>
<stop offset="0.95" style="stop-color:rgb(89.803922%,74.117647%,8.235294%);stop-opacity:1;"/>
</linearGradient>
<linearGradient id="linear1" gradientUnits="userSpaceOnUse" x1="32.05" y1="116.3" x2="114.46" y2="33.9" gradientTransform="matrix(1.28,0,0,1.28,0,0)">
<stop offset="0.05" style="stop-color:rgb(59.607843%,30.196078%,59.215686%);stop-opacity:1;"/>
<stop offset="0.51" style="stop-color:rgb(24.705882%,65.490196%,80%);stop-opacity:1;"/>
<stop offset="0.95" style="stop-color:rgb(89.803922%,74.117647%,8.235294%);stop-opacity:1;"/>
</linearGradient>
<linearGradient id="linear2" gradientUnits="userSpaceOnUse" x1="32.05" y1="116.3" x2="114.46" y2="33.9" gradientTransform="matrix(1.28,0,0,1.28,0,0)">
<stop offset="0.05" style="stop-color:rgb(59.607843%,30.196078%,59.215686%);stop-opacity:1;"/>
<stop offset="0.51" style="stop-color:rgb(24.705882%,65.490196%,80%);stop-opacity:1;"/>
<stop offset="0.95" style="stop-color:rgb(89.803922%,74.117647%,8.235294%);stop-opacity:1;"/>
</linearGradient>
</defs>
<g id="surface1">
<path style=" stroke:none;fill-rule:nonzero;fill:url(#linear0);" d="M 171.585938 114.929688 C 169.429688 112.824219 166.109375 112.46875 163.558594 114.074219 C 154.796875 119.421875 143.460938 117.71875 136.65625 110.03125 C 129.855469 102.34375 129.542969 90.882812 135.917969 82.835938 C 142.292969 74.789062 153.519531 72.472656 162.558594 77.335938 C 165.070312 78.746094 168.214844 78.308594 170.238281 76.261719 C 171.703125 74.832031 172.394531 72.789062 172.101562 70.765625 C 171.808594 68.738281 170.566406 66.976562 168.753906 66.023438 C 154.207031 58.117188 136.078125 61.824219 125.800781 74.808594 C 115.523438 87.792969 116.078125 106.289062 127.117188 118.632812 C 138.15625 130.976562 156.472656 133.589844 170.523438 124.824219 C 172.144531 123.777344 173.207031 122.054688 173.414062 120.132812 C 173.621094 118.210938 172.949219 116.300781 171.585938 114.929688 Z M 171.585938 114.929688 "/>
<path style=" stroke:none;fill-rule:nonzero;fill:url(#linear1);" d="M 111.667969 66.238281 C 107.640625 62.828125 102.324219 61.339844 97.113281 62.167969 C 92.085938 62.878906 87.566406 65.625 84.621094 69.761719 C 81.003906 74.519531 80.070312 80.796875 82.152344 86.398438 C 83.019531 88.960938 92.25 115.671875 97.074219 128.179688 C 97.503906 129.296875 98.578125 130.035156 99.777344 130.035156 C 100.972656 130.035156 102.046875 129.296875 102.476562 128.179688 C 106.40625 118.117188 113.28125 98.558594 116.671875 88.320312 C 118.257812 83.800781 119.039062 81.050781 117.953125 76.558594 C 117.054688 72.519531 114.84375 68.890625 111.667969 66.238281 Z M 99.648438 86.9375 C 96.191406 86.867188 93.445312 84.015625 93.503906 80.558594 C 93.5625 77.105469 96.40625 74.347656 99.859375 74.394531 C 103.316406 74.441406 106.082031 77.273438 106.046875 80.730469 C 106.027344 82.402344 105.339844 84 104.140625 85.164062 C 102.9375 86.332031 101.320312 86.96875 99.648438 86.9375 Z M 99.648438 86.9375 "/>
<path style=" stroke:none;fill-rule:nonzero;fill:url(#linear2);" d="M 76.953125 64 C 75.71875 62.734375 74.023438 62.023438 72.257812 62.023438 C 70.488281 62.023438 68.792969 62.734375 67.558594 64 L 50.035156 81.511719 C 49.226562 82.320312 47.914062 82.320312 47.105469 81.511719 L 29.59375 64 C 28.359375 62.734375 26.664062 62.023438 24.894531 62.023438 C 23.128906 62.023438 21.433594 62.734375 20.199219 64 C 19.113281 65.183594 18.515625 66.734375 18.523438 68.339844 L 18.523438 123.726562 C 18.230469 126.175781 19.375 128.574219 21.460938 129.894531 C 23.546875 131.210938 26.207031 131.210938 28.292969 129.894531 C 30.378906 128.574219 31.523438 126.175781 31.230469 123.726562 L 31.230469 88.613281 C 31.238281 87.78125 31.742188 87.03125 32.515625 86.710938 C 33.285156 86.394531 34.171875 86.566406 34.765625 87.15625 L 44.03125 96.410156 C 46.554688 98.882812 50.597656 98.882812 53.121094 96.410156 L 62.375 87.15625 C 62.96875 86.566406 63.855469 86.394531 64.625 86.710938 C 65.394531 87.03125 65.902344 87.78125 65.90625 88.613281 L 65.90625 123.457031 C 65.855469 126.8125 68.347656 129.660156 71.679688 130.0625 C 73.476562 130.226562 75.261719 129.625 76.589844 128.40625 C 77.921875 127.1875 78.675781 125.464844 78.667969 123.660156 L 78.667969 68.363281 C 78.675781 66.742188 78.0625 65.179688 76.953125 64 Z M 76.953125 64 "/>
</g>
</svg>
