<?xml version="1.0" encoding="UTF-8"?>
<svg id="Capa_2" data-name="Capa 2" xmlns="http://www.w3.org/2000/svg" viewBox="0 0 228.33 232.06">
  <defs>
    <style>
      .cls-1 {
        fill: white;
        stroke-width: 0px;
      }
    </style>
  </defs>
  <path class="cls-1" d="M113.16,179.72c-31.59,0-63.18,0-94.77,0-5.94,0-6.36-.42-6.37-6.27-.01-10.53.06-21.06-.04-31.59-.03-3.24,1-4.87,4.46-5.39,7.67-1.15,12.32-6.53,12.2-13.49-.12-7.01-4.73-12.01-12.56-13.2-2.89-.44-3.89-1.89-3.89-4.55,0-11.38.06-22.77-.03-34.15-.03-3.35,1.8-4.41,4.69-4.84,25.03-3.71,50.05-7.47,75.08-11.21,33.6-5.01,67.21-10,100.8-15.04,6.42-.96,6.97-.61,7.87,5.88.8,5.77,1.86,11.52,2.46,17.31.28,2.63,1.32,3.46,3.77,3.23,1.27-.12,2.56-.03,3.84,0,2.74.05,4.23,1.38,4.23,4.21,0,11.67.01,23.34-.02,35,0,2.48-1.16,3.77-3.83,4.15-7.86,1.12-12.54,6.02-12.8,12.99-.26,7.05,4.34,12.3,12.42,13.77,2.73.5,3.99,1.64,3.97,4.45-.06,11.38-.08,22.77,0,34.15.03,3.93-2.07,4.65-5.45,4.64-32.02-.07-64.03-.04-96.05-.04ZM158.69,72.96H18.49c0,7.47.21,14.7-.07,21.9-.21,5.46-.44,10.52,6.72,11.57.64.09,1.22.7,1.78,1.14,5.82,4.56,8.71,10.58,7.81,17.9-.96,7.83-5.43,13.22-12.86,16.14-1.25.49-3.18,1.63-3.2,2.51-.23,9.76-.14,19.53-.14,29.35h140.01c0-2.61-.33-4.94.12-7.1.28-1.35,1.74-2.46,2.66-3.67,1.12,1.19,2.89,2.23,3.22,3.62.54,2.24.15,4.72.15,7.27h44.21c0-9.17-.12-18.1.07-27.02.06-2.87-.77-4.15-3.59-5.1-8.13-2.74-12.67-9.52-12.77-18.24-.09-8.04,4.79-15.23,12.39-18.23,1.3-.51,2.64-.95,3.77-1.36v-30.95h-43.96c0,1.8.05,3.35-.01,4.89-.09,2.44.8,5.84-2.95,5.96-3.85.12-3.05-3.28-3.14-5.73-.05-1.52,0-3.05,0-4.83ZM194.48,46.02c-13.68,2.02-26.83,3.97-40.29,5.96.37,2.72,1.06,4.99.84,7.17-.15,1.47-1.58,2.82-2.43,4.22-1.13-1.03-2.76-1.86-3.26-3.14-.85-2.16-.97-4.6-1.48-7.37-29.19,4.38-58.02,8.7-86.84,13.02.04.15.08.29.12.44h136.37c-1.01-6.82-1.97-13.24-3.01-20.31Z"/>
  <path class="cls-1" d="M87.95,135.89c-11.37,0-22.75,0-34.12-.01-1.27,0-2.71.15-3.76-.38-.96-.48-2.06-1.79-2.07-2.75,0-.95,1.08-2.34,2.03-2.76,1.22-.54,2.77-.39,4.19-.39,22.46-.02,44.93-.02,67.39,0,1.27,0,2.73-.25,3.78.26,1.08.54,2.44,1.87,2.45,2.86,0,.99-1.34,2.34-2.41,2.88-1.04.52-2.5.27-3.77.28-11.23.01-22.46,0-33.69,0Z"/>
  <path class="cls-1" d="M87.91,116.82c-11.66,0-23.31,0-34.97,0-2.29,0-5.06.19-5.01-3.07.05-3.13,2.7-3.12,5.06-3.12,23.31,0,46.62,0,69.94,0,2.37,0,5,.03,5.01,3.16,0,3.26-2.78,3.02-5.06,3.02-11.66.02-23.31,0-34.97,0Z"/>
  <path class="cls-1" d="M87.95,148.66c11.66,0,23.31,0,34.97,0,2.28,0,5.06-.2,5.02,3.06-.04,3.12-2.68,3.13-5.05,3.13-23.31,0-46.62,0-69.94,0-2.37,0-5-.03-5.02-3.15-.02-3.27,2.77-3.03,5.05-3.03,11.66-.02,23.31,0,34.97,0Z"/>
  <path class="cls-1" d="M69.17,97.74c-5.68,0-11.37.2-17.02-.14-1.49-.09-2.88-1.86-4.31-2.86,1.45-1,2.87-2.84,4.34-2.87,11.49-.24,22.99-.24,34.48,0,1.45.03,2.86,1.86,4.29,2.86-1.44,1-2.84,2.78-4.33,2.87-5.8.34-11.63.14-17.45.14Z"/>
  <path class="cls-1" d="M164.68,105.9c0,3.11.29,6.26-.14,9.31-.18,1.26-1.9,2.31-2.92,3.45-1.02-1.12-2.87-2.19-2.93-3.35-.3-6.2-.32-12.44,0-18.64.06-1.26,2.01-2.42,3.09-3.63.97,1.18,2.61,2.27,2.78,3.56.41,3.05.13,6.2.13,9.31Z"/>
  <path class="cls-1" d="M164.68,140.92c0,2.99.34,6.03-.15,8.94-.23,1.33-2.1,2.38-3.22,3.55-.93-1.2-2.6-2.37-2.65-3.62-.27-6.11-.28-12.24.01-18.34.06-1.25,1.79-2.42,2.75-3.63,1.09,1.23,2.9,2.36,3.12,3.73.47,3.06.15,6.24.15,9.37Z"/>
</svg>